<svg xmlns="http://www.w3.org/2000/svg" viewBox="0 0 1024 1024">
  <rect width="1024" height="1024" rx="224" fill="#C9363E"/>
  <g transform="translate(128 128) scale(12)">
    <circle cx="32" cy="32" r="26" fill="none" stroke="#FFFFFF" stroke-width="2" opacity=".5"/>
    <path d="M40.5 16.5c-6.8 1.4-11.3 6.2-11.3 12.3 0 3.8 1.7 6.6 4.1 8.8 1.9 1.7 2.7 3.5 2.6 5.9-.1 1.8-.8 3.2-2.2 4.6M29.5 27.2c2.4.1 4.3-.6 5.7-2.1M32.6 31.5c1.2.4 2.3.4 3.4-.1M12 43.5h9l3.4-5.2 4.2 8.2 4-5.2h7.9" fill="none" stroke="#FFFFFF" stroke-width="2.4" stroke-linecap="round" stroke-linejoin="round"/>
    <circle cx="12" cy="43.5" r="3" fill="#FFFFFF" stroke="#C9363E" stroke-width="1.8"/><circle cx="40.5" cy="41.3" r="3" fill="#FFFFFF" stroke="#C9363E" stroke-width="1.8"/><circle cx="46.8" cy="18.8" r="3" fill="#FFFFFF" stroke="#C9363E" stroke-width="1.8"/>
  </g>
</svg>
